# xmcd
#
# Track frame offsets:
#	150
#	16049
#	31102
#	49679
#	68317
#	86717
#	102216
#	126526
#	143437
#
# Disc length: 2251 seconds
#
# Revision: 1
# Processed by: cddbd v1.5.2PL0 Copyright (c) Steve Scherf et al.
# Submitted via: audiograbber 1.83.01
#
DISCID=6508c909
DTITLE=Various Artist - The South's Greatest Hits Volume I
DYEAR=1900
DGENRE=Country Rock
TTITLE0=The Marshall Tucker Band - Heard It In A Love Song
TTITLE1=Atlanta Rhythm Section - So In To You
TTITLE2=The Charlie Daniels Band - Long Haired Country Boy
TTITLE3=The Outlaws - Hurry Sundown
TTITLE4=The Allman Brothers Band - Jessica
TTITLE5=Elvin Bishop - Struttin' My Stuff
TTITLE6=Sea Level - That's Your Secret
TTITLE7=Stillwater - Mind Bender
TTITLE8=Wet Willie - Street Corner Serenade
EXTD=
EXTT0=
EXTT1=
EXTT2=
EXTT3=
EXTT4=
EXTT5=
EXTT6=
EXTT7=
EXTT8=
PLAYORDER=
